<?xml version="1.0" encoding="UTF-8"?>
<!-- http://code.google.com/p/vector-playing-cards/ -->
<svg width="167.09pt" height="242.67pt" version="1.1" viewBox="0 0 167.09 242.67" xml:space="preserve" xmlns="http://www.w3.org/2000/svg" xmlns:cc="http://creativecommons.org/ns#" xmlns:dc="http://purl.org/dc/elements/1.1/" xmlns:rdf="http://www.w3.org/1999/02/22-rdf-syntax-ns#" xmlns:xlink="http://www.w3.org/1999/xlink"><metadata><rdf:RDF><cc:Work rdf:about=""><dc:format>image/svg+xml</dc:format><dc:type rdf:resource="http://purl.org/dc/dcmitype/StillImage"/><dc:title/></cc:Work></rdf:RDF></metadata>
	<g stroke="#000">
		<path d="m166.84 235.55c0 3.7773-3.0869 6.8691-6.8711 6.8691h-152.85c-3.7749 0-6.8608-3.0918-6.8608-6.8691v-228.43c0-3.7773 3.0859-6.8701 6.8608-6.8701h152.85c3.7842 0 6.8711 3.0928 6.8711 6.8701v228.43z" fill="#fff" stroke-width=".5"/>
		<g stroke="none">
		</g>
		<g stroke="none">
		</g>
		<g stroke="none">
		</g>
	</g>
<g transform="matrix(1.4857 0 0 1.4857 -54.025 10.018)"><path d="m50.291 22.698s2.375-1.9 2.375-4.534c0-1.542-1.369-4.102-4.534-4.102s-4.534 2.561-4.534 4.102c0 2.634 2.375 4.534 2.375 4.534-2.638-2.055-7.341-0.652-7.341 3.455 0 2.056 1.68 4.318 4.318 4.318 3.165 0 4.534-3.455 4.534-3.455s0.402 3.938-1.943 6.046h5.182c-2.345-2.107-1.943-6.046-1.943-6.046s1.369 3.455 4.534 3.455c2.639 0 4.318-2.263 4.318-4.318 0-4.107-4.703-5.51-7.341-3.455z"/></g>
<g transform="matrix(-1.4857 0 0 -1.4857 221.2 232.46)"><path d="m50.291 22.698s2.375-1.9 2.375-4.534c0-1.542-1.369-4.102-4.534-4.102s-4.534 2.561-4.534 4.102c0 2.634 2.375 4.534 2.375 4.534-2.638-2.055-7.341-0.652-7.341 3.455 0 2.056 1.68 4.318 4.318 4.318 3.165 0 4.534-3.455 4.534-3.455s0.402 3.938-1.943 6.046h5.182c-2.345-2.107-1.943-6.046-1.943-6.046s1.369 3.455 4.534 3.455c2.639 0 4.318-2.263 4.318-4.318 0-4.107-4.703-5.51-7.341-3.455z"/></g><path d="m57.573 25.1s5.9674-4.7739 5.9674-11.392c0-3.8744-3.4397-10.307-11.392-10.307s-11.392 6.4347-11.392 10.307c0 6.6181 5.9674 11.392 5.9674 11.392-6.6282-5.1633-18.445-1.6382-18.445 8.681 0 5.1659 4.2211 10.849 10.849 10.849 7.9523 0 11.392-8.681 11.392-8.681s1.0101 9.8945-4.8819 15.191h13.02c-5.892-5.294-4.8819-15.191-4.8819-15.191s3.4397 8.681 11.392 8.681c6.6307 0 10.849-5.686 10.849-10.849 0-10.319-11.817-13.844-18.445-8.681z"/><path d="m57.11 93.201s5.9674-4.7739 5.9674-11.392c0-3.8744-3.4397-10.307-11.392-10.307s-11.392 6.4347-11.392 10.307c0 6.6181 5.9674 11.392 5.9674 11.392-6.6282-5.1633-18.445-1.6382-18.445 8.681 0 5.1659 4.2211 10.849 10.849 10.849 7.9523 0 11.392-8.681 11.392-8.681s1.0101 9.8945-4.8819 15.191h13.02c-5.892-5.294-4.8819-15.191-4.8819-15.191s3.4397 8.681 11.392 8.681c6.6307 0 10.849-5.686 10.849-10.849 0-10.319-11.817-13.844-18.445-8.681z"/><path d="m121.56 24.926s5.9674-4.7739 5.9674-11.392c0-3.8744-3.4397-10.307-11.392-10.307-7.9523 0-11.392 6.4347-11.392 10.307 0 6.6181 5.9674 11.392 5.9674 11.392-6.6282-5.1633-18.445-1.6382-18.445 8.681 0 5.1659 4.2211 10.849 10.849 10.849 7.9523 0 11.392-8.681 11.392-8.681s1.0101 9.8945-4.8819 15.191h13.02c-5.892-5.294-4.8819-15.191-4.8819-15.191s3.4397 8.681 11.392 8.681c6.6307 0 10.849-5.686 10.849-10.849 0-10.319-11.817-13.844-18.445-8.681z"/><path d="m121.56 93.027s5.9674-4.7739 5.9674-11.392c0-3.8744-3.4397-10.307-11.392-10.307-7.9523 0-11.392 6.4347-11.392 10.307 0 6.6181 5.9674 11.392 5.9674 11.392-6.6282-5.1633-18.445-1.6382-18.445 8.681 0 5.1659 4.2211 10.849 10.849 10.849 7.9523 0 11.392-8.681 11.392-8.681s1.0101 9.8945-4.8819 15.191h13.02c-5.892-5.294-4.8819-15.191-4.8819-15.191s3.4397 8.681 11.392 8.681c6.6307 0 10.849-5.686 10.849-10.849 0-10.319-11.817-13.844-18.445-8.681z"/><path d="m89.577 59.281s5.9674-4.7739 5.9674-11.392c0-3.8744-3.4397-10.307-11.392-10.307s-11.392 6.4347-11.392 10.307c0 6.6181 5.9674 11.392 5.9674 11.392-6.6282-5.1633-18.445-1.6382-18.445 8.681 0 5.1659 4.2211 10.849 10.849 10.849 7.9523 0 11.392-8.681 11.392-8.681s1.0101 9.8945-4.8819 15.191h13.02c-5.892-5.294-4.8819-15.191-4.8819-15.191s3.4397 8.681 11.392 8.681c6.6307 0 10.849-5.686 10.849-10.849 0-10.319-11.817-13.844-18.445-8.681z"/><path d="m110.06 217.8s-5.9674 4.7739-5.9674 11.392c0 3.8744 3.4397 10.307 11.392 10.307 7.9523 0 11.392-6.4347 11.392-10.307 0-6.6181-5.9674-11.392-5.9674-11.392 6.6282 5.1634 18.445 1.6382 18.445-8.681 0-5.1659-4.2211-10.849-10.849-10.849-7.9523 0-11.392 8.681-11.392 8.681s-1.0101-9.8945 4.8819-15.191h-13.02c5.892 5.294 4.8819 15.191 4.8819 15.191s-3.4397-8.681-11.392-8.681c-6.6307 0-10.849 5.686-10.849 10.849 0 10.319 11.817 13.844 18.445 8.681z"/><path d="m110.71 149.7s-5.9674 4.7739-5.9674 11.392c0 3.8744 3.4397 10.307 11.392 10.307 7.9523 0 11.392-6.4347 11.392-10.307 0-6.6181-5.9674-11.392-5.9674-11.392 6.6282 5.1634 18.445 1.6382 18.445-8.681 0-5.1659-4.2211-10.849-10.849-10.849-7.9523 0-11.392 8.681-11.392 8.681s-1.0101-9.8945 4.8819-15.191h-13.02c5.892 5.294 4.8819 15.191 4.8819 15.191s-3.4397-8.681-11.392-8.681c-6.6307 0-10.849 5.686-10.849 10.849 0 10.319 11.817 13.844 18.445 8.681z"/><path d="m46.078 217.98s-5.9674 4.7739-5.9674 11.392c0 3.8744 3.4397 10.307 11.392 10.307s11.392-6.4347 11.392-10.307c0-6.6181-5.9674-11.392-5.9674-11.392 6.6282 5.1634 18.445 1.6382 18.445-8.681 0-5.1659-4.2211-10.849-10.849-10.849-7.9523 0-11.392 8.681-11.392 8.681s-1.0101-9.8945 4.8819-15.191h-13.02c5.892 5.294 4.8819 15.191 4.8819 15.191s-3.4397-8.681-11.392-8.681c-6.6307 0-10.849 5.686-10.849 10.849 0 10.319 11.817 13.844 18.445 8.681z"/><path d="m46.261 149.88s-5.9674 4.7739-5.9674 11.392c0 3.8744 3.4397 10.307 11.392 10.307s11.392-6.4347 11.392-10.307c0-6.6181-5.9674-11.392-5.9674-11.392 6.6282 5.1634 18.445 1.6382 18.445-8.681 0-5.1659-4.2211-10.849-10.849-10.849-7.9523 0-11.392 8.681-11.392 8.681s-1.0101-9.8945 4.8819-15.191h-13.02c5.892 5.294 4.8819 15.191 4.8819 15.191s-3.4397-8.681-11.392-8.681c-6.6307 0-10.849 5.686-10.849 10.849 0 10.319 11.817 13.844 18.445 8.681z"/><text x="-1.1621548" y="27.170401" fill="#000000" font-family="Bitstream Vera Sans" font-size="32px" letter-spacing="0px" word-spacing="0px" style="line-height:125%" xml:space="preserve"><tspan x="-1.1621548" y="27.170401" font-family="Arial">1</tspan></text>
<text x="11.000458" y="27.499109" fill="#000000" font-family="Bitstream Vera Sans" font-size="32px" letter-spacing="0px" word-spacing="0px" style="line-height:125%" xml:space="preserve"><tspan x="11.000458" y="27.499109">0</tspan></text>
<path d="m78.07 183.94s-5.9674 4.7739-5.9674 11.392c0 3.8744 3.4397 10.307 11.392 10.307s11.392-6.4347 11.392-10.307c0-6.6181-5.9674-11.392-5.9674-11.392 6.6282 5.1633 18.445 1.6382 18.445-8.681 0-5.1659-4.2211-10.849-10.849-10.849-7.9523 0-11.392 8.681-11.392 8.681s-1.01-9.8945 4.8819-15.191h-13.02c5.892 5.294 4.8819 15.191 4.8819 15.191s-3.4397-8.681-11.392-8.681c-6.6307 0-10.849 5.686-10.849 10.849 0 10.319 11.817 13.844 18.445 8.681z"/><text transform="scale(-1)" x="-168.80901" y="-216.22618" fill="#000000" font-family="Bitstream Vera Sans" font-size="32px" letter-spacing="0px" word-spacing="0px" style="line-height:125%" xml:space="preserve"><tspan x="-168.80901" y="-216.22618" font-family="Arial">1</tspan></text>
<text transform="scale(-1)" x="-156.64639" y="-215.89748" fill="#000000" font-family="Bitstream Vera Sans" font-size="32px" letter-spacing="0px" word-spacing="0px" style="line-height:125%" xml:space="preserve"><tspan x="-156.64639" y="-215.89748">0</tspan></text>
</svg>
