<?xml version="1.0" encoding="UTF-8"?>
<!-- http://code.google.com/p/vector-playing-cards/ -->
<svg width="167.09pt" height="242.67pt" version="1.1" viewBox="0 0 167.09 242.67" xml:space="preserve" xmlns="http://www.w3.org/2000/svg" xmlns:cc="http://creativecommons.org/ns#" xmlns:dc="http://purl.org/dc/elements/1.1/" xmlns:rdf="http://www.w3.org/1999/02/22-rdf-syntax-ns#" xmlns:xlink="http://www.w3.org/1999/xlink"><metadata><rdf:RDF><cc:Work rdf:about=""><dc:format>image/svg+xml</dc:format><dc:type rdf:resource="http://purl.org/dc/dcmitype/StillImage"/><dc:title/></cc:Work></rdf:RDF></metadata>
	<g stroke="#000">
		<path d="m166.84 235.55c0 3.7773-3.0869 6.8691-6.8711 6.8691h-152.85c-3.7749 0-6.8608-3.0918-6.8608-6.8691v-228.43c0-3.7773 3.0859-6.8701 6.8608-6.8701h152.85c3.7842 0 6.8711 3.0928 6.8711 6.8701v228.43z" fill="#fff" stroke-width=".5"/>
		<g stroke="none">
		</g>
		<g stroke="none">
		</g>
		<g stroke="none">
		</g>
	</g>
<text x="-0.98704022" y="29.202564" fill="#df0000" font-family="Bitstream Vera Sans" font-size="32px" letter-spacing="0px" word-spacing="0px" style="line-height:125%" xml:space="preserve"><tspan x="-0.98704022" y="29.202564" fill="#df0000" font-family="Arial">1</tspan></text>
<g transform="matrix(1.6743 0 0 1.567 17.178 46.385)" fill="#df0000"><path d="m3.676-9c-3.243 0-3.676 3.477-3.676 3.477s-0.433-3.477-3.676-3.477c-2.27 0-4.324 1.559-4.324 4.5 0 3.886 6.5792 7.7938 8 13.5 1.352-5.7014 8-9.614 8-13.5 0-2.941-2.054-4.5-4.324-4.5z" fill="#df0000"/></g>
<g transform="matrix(-1.6743 0 0 -1.567 150.16 195.14)" fill="#df0000"><path d="m3.676-9c-3.243 0-3.676 3.477-3.676 3.477s-0.433-3.477-3.676-3.477c-2.27 0-4.324 1.559-4.324 4.5 0 3.886 6.5792 7.7938 8 13.5 1.352-5.7014 8-9.614 8-13.5 0-2.941-2.054-4.5-4.324-4.5z" fill="#df0000"/></g><g transform="matrix(2.779 0 0 2.6009 54.512 30.004)" fill="#df0000"><path d="m3.676-9c-3.243 0-3.676 3.477-3.676 3.477s-0.433-3.477-3.676-3.477c-2.27 0-4.324 1.559-4.324 4.5 0 3.886 6.5792 7.7938 8 13.5 1.352-5.7014 8-9.614 8-13.5 0-2.941-2.054-4.5-4.324-4.5z" fill="#df0000"/></g><g transform="matrix(-2.779 0 0 -2.6009 54.512 212.81)" fill="#df0000"><path d="m3.676-9c-3.243 0-3.676 3.477-3.676 3.477s-0.433-3.477-3.676-3.477c-2.27 0-4.324 1.559-4.324 4.5 0 3.886 6.5792 7.7938 8 13.5 1.352-5.7014 8-9.614 8-13.5 0-2.941-2.054-4.5-4.324-4.5z" fill="#df0000"/></g><g transform="matrix(2.779 0 0 2.6009 54.512 95.239)" fill="#df0000"><path d="m3.676-9c-3.243 0-3.676 3.477-3.676 3.477s-0.433-3.477-3.676-3.477c-2.27 0-4.324 1.559-4.324 4.5 0 3.886 6.5792 7.7938 8 13.5 1.352-5.7014 8-9.614 8-13.5 0-2.941-2.054-4.5-4.324-4.5z" fill="#df0000"/></g><g transform="matrix(-2.779 0 0 -2.6009 54.512 145.36)" fill="#df0000"><path d="m3.676-9c-3.243 0-3.676 3.477-3.676 3.477s-0.433-3.477-3.676-3.477c-2.27 0-4.324 1.559-4.324 4.5 0 3.886 6.5792 7.7938 8 13.5 1.352-5.7014 8-9.614 8-13.5 0-2.941-2.054-4.5-4.324-4.5z" fill="#df0000"/></g><g transform="matrix(2.779 0 0 2.6009 111.99 30.603)" fill="#df0000"><path d="m3.676-9c-3.243 0-3.676 3.477-3.676 3.477s-0.433-3.477-3.676-3.477c-2.27 0-4.324 1.559-4.324 4.5 0 3.886 6.5792 7.7938 8 13.5 1.352-5.7014 8-9.614 8-13.5 0-2.941-2.054-4.5-4.324-4.5z" fill="#df0000"/></g><g transform="matrix(-2.779 0 0 -2.6009 111.99 213.4)" fill="#df0000"><path d="m3.676-9c-3.243 0-3.676 3.477-3.676 3.477s-0.433-3.477-3.676-3.477c-2.27 0-4.324 1.559-4.324 4.5 0 3.886 6.5792 7.7938 8 13.5 1.352-5.7014 8-9.614 8-13.5 0-2.941-2.054-4.5-4.324-4.5z" fill="#df0000"/></g><g transform="matrix(2.779 0 0 2.6009 111.99 95.837)" fill="#df0000"><path d="m3.676-9c-3.243 0-3.676 3.477-3.676 3.477s-0.433-3.477-3.676-3.477c-2.27 0-4.324 1.559-4.324 4.5 0 3.886 6.5792 7.7938 8 13.5 1.352-5.7014 8-9.614 8-13.5 0-2.941-2.054-4.5-4.324-4.5z" fill="#df0000"/></g><g transform="matrix(-2.779 0 0 -2.6009 111.99 145.95)" fill="#df0000"><path d="m3.676-9c-3.243 0-3.676 3.477-3.676 3.477s-0.433-3.477-3.676-3.477c-2.27 0-4.324 1.559-4.324 4.5 0 3.886 6.5792 7.7938 8 13.5 1.352-5.7014 8-9.614 8-13.5 0-2.941-2.054-4.5-4.324-4.5z" fill="#df0000"/></g><g transform="matrix(2.779 0 0 2.6009 83.213 62.705)" fill="#df0000"><path d="m3.676-9c-3.243 0-3.676 3.477-3.676 3.477s-0.433-3.477-3.676-3.477c-2.27 0-4.324 1.559-4.324 4.5 0 3.886 6.5792 7.7938 8 13.5 1.352-5.7014 8-9.614 8-13.5 0-2.941-2.054-4.5-4.324-4.5z" fill="#df0000"/></g><g transform="matrix(-2.779 0 0 -2.6009 82.749 179.7)" fill="#df0000"><path d="m3.676-9c-3.243 0-3.676 3.477-3.676 3.477s-0.433-3.477-3.676-3.477c-2.27 0-4.324 1.559-4.324 4.5 0 3.886 6.5792 7.7938 8 13.5 1.352-5.7014 8-9.614 8-13.5 0-2.941-2.054-4.5-4.324-4.5z" fill="#df0000"/></g><text x="12.28669" y="28.960051" fill="#df0000" font-family="Bitstream Vera Sans" font-size="32px" letter-spacing="0px" word-spacing="0px" style="line-height:125%" xml:space="preserve"><tspan x="12.28669" y="28.960051" fill="#df0000" font-family="Arial">0</tspan></text>
<text transform="scale(-1)" x="-167.59764" y="-212.05972" fill="#df0000" font-family="Bitstream Vera Sans" font-size="32px" letter-spacing="0px" word-spacing="0px" style="line-height:125%" xml:space="preserve"><tspan x="-167.59764" y="-212.05972" fill="#df0000" font-family="Arial">1</tspan></text>
<text transform="scale(-1)" x="-154.32391" y="-212.30225" fill="#df0000" font-family="Bitstream Vera Sans" font-size="32px" letter-spacing="0px" word-spacing="0px" style="line-height:125%" xml:space="preserve"><tspan x="-154.32391" y="-212.30225" fill="#df0000" font-family="Arial">0</tspan></text>
</svg>
