<?xml version="1.0" encoding="UTF-8"?>
<!-- http://code.google.com/p/vector-playing-cards/ -->
<svg width="167.09pt" height="242.67pt" version="1.1" viewBox="0 0 167.09 242.67" xml:space="preserve" xmlns="http://www.w3.org/2000/svg" xmlns:cc="http://creativecommons.org/ns#" xmlns:dc="http://purl.org/dc/elements/1.1/" xmlns:rdf="http://www.w3.org/1999/02/22-rdf-syntax-ns#"><metadata><rdf:RDF><cc:Work rdf:about=""><dc:format>image/svg+xml</dc:format><dc:type rdf:resource="http://purl.org/dc/dcmitype/StillImage"/><dc:title/></cc:Work></rdf:RDF></metadata>
	<g stroke="#000">
		<path d="m166.84 235.55c0 3.7773-3.0869 6.8691-6.8711 6.8691h-152.85c-3.7749 0-6.8608-3.0918-6.8608-6.8691v-228.43c0-3.7773 3.0859-6.8701 6.8608-6.8701h152.85c3.7842 0 6.8711 3.0928 6.8711 6.8701v228.43z" fill="#fff" stroke-width=".5"/>
		<g stroke="none">
		</g>
		<g stroke="none">
		</g>
		<g stroke="none">
		</g>
	</g>
<text x="8.5467014" y="28.013288" fill="#000000" font-family="Bitstream Vera Sans" font-size="32px" letter-spacing="0px" word-spacing="0px" style="line-height:125%" xml:space="preserve"><tspan x="8.5467014" y="28.013288" font-family="Arial">5</tspan></text>
<g transform="matrix(1.5086 0 0 1.3793 16.929 45.066)"><path d="m7.989 3.103c-0.242-4.057-7.747-11.693-7.989-13.603-0.242 1.909-7.747 9.545-7.989 13.603-0.169 2.868 1.695 4.057 3.39 4.057 1.8352-0.021581 3.3509-2.8007 3.873-3.341 0.242 0.716-1.603 6.682-2.179 6.682h5.811c-0.576 0-2.421-5.966-2.179-6.682 0.45715 0.4963 1.7971 3.2578 3.874 3.341 1.694-1e-3 3.557-1.189 3.388-4.057z"/></g>
<g transform="matrix(2.6487 0 0 2.4217 56.211 49.366)"><path d="m7.989 3.103c-0.242-4.057-7.747-11.693-7.989-13.603-0.242 1.909-7.747 9.545-7.989 13.603-0.169 2.868 1.695 4.057 3.39 4.057 1.8352-0.021581 3.3509-2.8007 3.873-3.341 0.242 0.716-1.603 6.682-2.179 6.682h5.811c-0.576 0-2.421-5.966-2.179-6.682 0.45715 0.4963 1.7971 3.2578 3.874 3.341 1.694-1e-3 3.557-1.189 3.388-4.057z"/></g><text transform="scale(-1)" x="-158.97775" y="-215.12402" fill="#000000" font-family="Bitstream Vera Sans" font-size="32px" letter-spacing="0px" word-spacing="0px" style="line-height:125%" xml:space="preserve"><tspan x="-158.97775" y="-215.12402" font-family="Arial">5</tspan></text>
<g transform="matrix(-1.5086 0 0 -1.3793 150.23 198.04)"><path d="m7.989 3.103c-0.242-4.057-7.747-11.693-7.989-13.603-0.242 1.909-7.747 9.545-7.989 13.603-0.169 2.868 1.695 4.057 3.39 4.057 1.8352-0.021581 3.3509-2.8007 3.873-3.341 0.242 0.716-1.603 6.682-2.179 6.682h5.811c-0.576 0-2.421-5.966-2.179-6.682 0.45715 0.4963 1.7971 3.2578 3.874 3.341 1.694-1e-3 3.557-1.189 3.388-4.057z"/></g><g transform="matrix(-2.6487 0 0 -2.4217 56.256 193.77)"><path d="m7.989 3.103c-0.242-4.057-7.747-11.693-7.989-13.603-0.242 1.909-7.747 9.545-7.989 13.603-0.169 2.868 1.695 4.057 3.39 4.057 1.8352-0.021581 3.3509-2.8007 3.873-3.341 0.242 0.716-1.603 6.682-2.179 6.682h5.811c-0.576 0-2.421-5.966-2.179-6.682 0.45715 0.4963 1.7971 3.2578 3.874 3.341 1.694-1e-3 3.557-1.189 3.388-4.057z"/></g><g transform="matrix(2.6487 0 0 2.4217 83.495 119.07)"><path d="m7.989 3.103c-0.242-4.057-7.747-11.693-7.989-13.603-0.242 1.909-7.747 9.545-7.989 13.603-0.169 2.868 1.695 4.057 3.39 4.057 1.8352-0.021581 3.3509-2.8007 3.873-3.341 0.242 0.716-1.603 6.682-2.179 6.682h5.811c-0.576 0-2.421-5.966-2.179-6.682 0.45715 0.4963 1.7971 3.2578 3.874 3.341 1.694-1e-3 3.557-1.189 3.388-4.057z"/></g><g transform="matrix(2.6487 0 0 2.4217 109.93 49.496)"><path d="m7.989 3.103c-0.242-4.057-7.747-11.693-7.989-13.603-0.242 1.909-7.747 9.545-7.989 13.603-0.169 2.868 1.695 4.057 3.39 4.057 1.8352-0.021581 3.3509-2.8007 3.873-3.341 0.242 0.716-1.603 6.682-2.179 6.682h5.811c-0.576 0-2.421-5.966-2.179-6.682 0.45715 0.4963 1.7971 3.2578 3.874 3.341 1.694-1e-3 3.557-1.189 3.388-4.057z"/></g><g transform="matrix(-2.6487 0 0 -2.4217 109.98 193.9)"><path d="m7.989 3.103c-0.242-4.057-7.747-11.693-7.989-13.603-0.242 1.909-7.747 9.545-7.989 13.603-0.169 2.868 1.695 4.057 3.39 4.057 1.8352-0.021581 3.3509-2.8007 3.873-3.341 0.242 0.716-1.603 6.682-2.179 6.682h5.811c-0.576 0-2.421-5.966-2.179-6.682 0.45715 0.4963 1.7971 3.2578 3.874 3.341 1.694-1e-3 3.557-1.189 3.388-4.057z"/></g></svg>
