<?xml version="1.0" encoding="UTF-8"?>
<!-- http://code.google.com/p/vector-playing-cards/ -->
<svg width="167.09pt" height="242.67pt" version="1.1" viewBox="0 0 167.09 242.67" xml:space="preserve" xmlns="http://www.w3.org/2000/svg" xmlns:cc="http://creativecommons.org/ns#" xmlns:dc="http://purl.org/dc/elements/1.1/" xmlns:rdf="http://www.w3.org/1999/02/22-rdf-syntax-ns#" xmlns:xlink="http://www.w3.org/1999/xlink"><metadata><rdf:RDF><cc:Work rdf:about=""><dc:format>image/svg+xml</dc:format><dc:type rdf:resource="http://purl.org/dc/dcmitype/StillImage"/><dc:title/></cc:Work></rdf:RDF></metadata>
	<g stroke="#000">
		<path d="m166.84 235.55c0 3.7773-3.0869 6.8691-6.8711 6.8691h-152.85c-3.7749 0-6.8608-3.0918-6.8608-6.8691v-228.43c0-3.7773 3.0859-6.8701 6.8608-6.8701h152.85c3.7842 0 6.8711 3.0928 6.8711 6.8701v228.43z" fill="#fff" stroke-width=".5"/>
		<g stroke="none">
		</g>
		<g stroke="none">
		</g>
		<g stroke="none">
		</g>
	</g>
<text x="8.3105459" y="27.548409" fill="#000000" font-family="Bitstream Vera Sans" font-size="32px" letter-spacing="0px" word-spacing="0px" style="line-height:125%" xml:space="preserve"><tspan x="8.3105459" y="27.548409" font-family="Arial">6</tspan></text>
<g transform="matrix(1.4857 0 0 1.4857 -54.025 10.018)"><path d="m50.291 22.698s2.375-1.9 2.375-4.534c0-1.542-1.369-4.102-4.534-4.102s-4.534 2.561-4.534 4.102c0 2.634 2.375 4.534 2.375 4.534-2.638-2.055-7.341-0.652-7.341 3.455 0 2.056 1.68 4.318 4.318 4.318 3.165 0 4.534-3.455 4.534-3.455s0.402 3.938-1.943 6.046h5.182c-2.345-2.107-1.943-6.046-1.943-6.046s1.369 3.455 4.534 3.455c2.639 0 4.318-2.263 4.318-4.318 0-4.107-4.703-5.51-7.341-3.455z"/></g><text transform="scale(-1)" x="-158.86395" y="-214.4666" fill="#000000" font-family="Bitstream Vera Sans" font-size="32px" letter-spacing="0px" word-spacing="0px" style="line-height:125%" xml:space="preserve"><tspan x="-158.86395" y="-214.4666" font-family="Arial">6</tspan></text>
<g transform="matrix(-1.4857 0 0 -1.4857 221.2 232.46)"><path d="m50.291 22.698s2.375-1.9 2.375-4.534c0-1.542-1.369-4.102-4.534-4.102s-4.534 2.561-4.534 4.102c0 2.634 2.375 4.534 2.375 4.534-2.638-2.055-7.341-0.652-7.341 3.455 0 2.056 1.68 4.318 4.318 4.318 3.165 0 4.534-3.455 4.534-3.455s0.402 3.938-1.943 6.046h5.182c-2.345-2.107-1.943-6.046-1.943-6.046s1.369 3.455 4.534 3.455c2.639 0 4.318-2.263 4.318-4.318 0-4.107-4.703-5.51-7.341-3.455z"/></g><g transform="matrix(2.5126 0 0 2.5126 -63.988 -9.5311)"><path d="m50.291 22.698s2.375-1.9 2.375-4.534c0-1.542-1.369-4.102-4.534-4.102s-4.534 2.561-4.534 4.102c0 2.634 2.375 4.534 2.375 4.534-2.638-2.055-7.341-0.652-7.341 3.455 0 2.056 1.68 4.318 4.318 4.318 3.165 0 4.534-3.455 4.534-3.455s0.402 3.938-1.943 6.046h5.182c-2.345-2.107-1.943-6.046-1.943-6.046s1.369 3.455 4.534 3.455c2.639 0 4.318-2.263 4.318-4.318 0-4.107-4.703-5.51-7.341-3.455z"/></g><g transform="matrix(-2.5126 0 0 -2.5126 177.93 253.28)"><path d="m50.291 22.698s2.375-1.9 2.375-4.534c0-1.542-1.369-4.102-4.534-4.102s-4.534 2.561-4.534 4.102c0 2.634 2.375 4.534 2.375 4.534-2.638-2.055-7.341-0.652-7.341 3.455 0 2.056 1.68 4.318 4.318 4.318 3.165 0 4.534-3.455 4.534-3.455s0.402 3.938-1.943 6.046h5.182c-2.345-2.107-1.943-6.046-1.943-6.046s1.369 3.455 4.534 3.455c2.639 0 4.318-2.263 4.318-4.318 0-4.107-4.703-5.51-7.341-3.455z"/></g><g transform="matrix(2.5126 0 0 2.5126 -63.988 60.17)"><path d="m50.291 22.698s2.375-1.9 2.375-4.534c0-1.542-1.369-4.102-4.534-4.102s-4.534 2.561-4.534 4.102c0 2.634 2.375 4.534 2.375 4.534-2.638-2.055-7.341-0.652-7.341 3.455 0 2.056 1.68 4.318 4.318 4.318 3.165 0 4.534-3.455 4.534-3.455s0.402 3.938-1.943 6.046h5.182c-2.345-2.107-1.943-6.046-1.943-6.046s1.369 3.455 4.534 3.455c2.639 0 4.318-2.263 4.318-4.318 0-4.107-4.703-5.51-7.341-3.455z"/></g><g transform="matrix(2.5126 0 0 2.5126 -11.203 -9.7048)"><path d="m50.291 22.698s2.375-1.9 2.375-4.534c0-1.542-1.369-4.102-4.534-4.102s-4.534 2.561-4.534 4.102c0 2.634 2.375 4.534 2.375 4.534-2.638-2.055-7.341-0.652-7.341 3.455 0 2.056 1.68 4.318 4.318 4.318 3.165 0 4.534-3.455 4.534-3.455s0.402 3.938-1.943 6.046h5.182c-2.345-2.107-1.943-6.046-1.943-6.046s1.369 3.455 4.534 3.455c2.639 0 4.318-2.263 4.318-4.318 0-4.107-4.703-5.51-7.341-3.455z"/></g><g transform="matrix(-2.5126 0 0 -2.5126 230.71 253.1)"><path d="m50.291 22.698s2.375-1.9 2.375-4.534c0-1.542-1.369-4.102-4.534-4.102s-4.534 2.561-4.534 4.102c0 2.634 2.375 4.534 2.375 4.534-2.638-2.055-7.341-0.652-7.341 3.455 0 2.056 1.68 4.318 4.318 4.318 3.165 0 4.534-3.455 4.534-3.455s0.402 3.938-1.943 6.046h5.182c-2.345-2.107-1.943-6.046-1.943-6.046s1.369 3.455 4.534 3.455c2.639 0 4.318-2.263 4.318-4.318 0-4.107-4.703-5.51-7.341-3.455z"/></g><g transform="matrix(2.5126 0 0 2.5126 -11.203 59.996)"><path d="m50.291 22.698s2.375-1.9 2.375-4.534c0-1.542-1.369-4.102-4.534-4.102s-4.534 2.561-4.534 4.102c0 2.634 2.375 4.534 2.375 4.534-2.638-2.055-7.341-0.652-7.341 3.455 0 2.056 1.68 4.318 4.318 4.318 3.165 0 4.534-3.455 4.534-3.455s0.402 3.938-1.943 6.046h5.182c-2.345-2.107-1.943-6.046-1.943-6.046s1.369 3.455 4.534 3.455c2.639 0 4.318-2.263 4.318-4.318 0-4.107-4.703-5.51-7.341-3.455z"/></g></svg>
