<?xml version="1.0" encoding="UTF-8"?>
<!-- http://code.google.com/p/vector-playing-cards/ -->
<svg width="167.09pt" height="242.67pt" version="1.1" viewBox="0 0 167.09 242.67" xml:space="preserve" xmlns="http://www.w3.org/2000/svg" xmlns:cc="http://creativecommons.org/ns#" xmlns:dc="http://purl.org/dc/elements/1.1/" xmlns:rdf="http://www.w3.org/1999/02/22-rdf-syntax-ns#" xmlns:xlink="http://www.w3.org/1999/xlink"><metadata><rdf:RDF><cc:Work rdf:about=""><dc:format>image/svg+xml</dc:format><dc:type rdf:resource="http://purl.org/dc/dcmitype/StillImage"/><dc:title/></cc:Work></rdf:RDF></metadata><defs><radialGradient id="d" cx="48.231" cy="18.138" r="9.5" gradientTransform="matrix(-1.5605 .018283 -.026841 -2.291 123.98 58.809)" gradientUnits="userSpaceOnUse"><stop offset="0"/><stop stop-opacity=".65649" offset="1"/></radialGradient><radialGradient id="c" cx="171.49" cy="511.22" r="81.903" gradientTransform="matrix(1.153 -.67392 .39482 .67549 -233.63 270.4)" gradientUnits="userSpaceOnUse"><stop stop-color="#fff" stop-opacity=".53435" offset="0"/><stop stop-opacity="0" offset="1"/></radialGradient><filter id="g" x="-.13934" y="-.16242" width="1.2787" height="1.3248" color-interpolation-filters="sRGB"><feGaussianBlur stdDeviation="9.5105772"/></filter><radialGradient id="b" cx="171.49" cy="511.22" r="81.903" gradientTransform="matrix(1.153 -.67392 .39482 .67549 -233.63 270.4)" gradientUnits="userSpaceOnUse"><stop stop-color="#fff" stop-opacity=".51908" offset="0"/><stop stop-opacity="0" offset="1"/></radialGradient><filter id="f" x="-.13934" y="-.16242" width="1.2787" height="1.3248" color-interpolation-filters="sRGB"><feGaussianBlur stdDeviation="9.5105772"/></filter><radialGradient id="a" cx="181.69" cy="461.84" r="81.903" gradientTransform="matrix(1.153 -.67392 .39482 .67549 -233.63 270.4)" gradientUnits="userSpaceOnUse"><stop stop-color="#fff" stop-opacity=".70229" offset="0"/><stop stop-opacity="0" offset="1"/></radialGradient><filter id="e" x="-.13934" y="-.16242" width="1.2787" height="1.3248" color-interpolation-filters="sRGB"><feGaussianBlur stdDeviation="9.5105772"/></filter></defs>
	<g stroke="#000">
		<path d="m166.84 235.55c0 3.7773-3.0869 6.8691-6.8711 6.8691h-152.85c-3.7749 0-6.8608-3.0918-6.8608-6.8691v-228.43c0-3.7773 3.0859-6.8701 6.8608-6.8701h152.85c3.7842 0 6.8711 3.0928 6.8711 6.8701v228.43z" fill="#fff" stroke-width=".5"/>
		<g stroke="none">
		</g>
		<g stroke="none">
		</g>
		<g stroke="none">
		</g>
	</g>
<text x="6.7105455" y="27.548409" fill="#000000" font-family="Bitstream Vera Sans" font-size="32px" letter-spacing="0px" word-spacing="0px" style="line-height:125%" xml:space="preserve"><tspan x="6.7105455" y="27.548409" font-family="Arial">A</tspan></text>
<g transform="matrix(.20615 0 0 .20615 8.8705 16.513)"><g transform="matrix(28.97 0 0 28.97 -1031.5 -187.38)"><path d="m50.291 22.698s2.375-1.9 2.375-4.534c0-1.542-1.369-4.102-4.534-4.102s-4.534 2.561-4.534 4.102c0 2.634 2.375 4.534 2.375 4.534-2.638-2.055-7.341-0.652-7.341 3.455 0 2.056 1.68 4.318 4.318 4.318 3.165 0 4.534-3.455 4.534-3.455s0.402 3.938-1.943 6.046h5.182c-2.345-2.107-1.943-6.046-1.943-6.046s1.369 3.455 4.534 3.455c2.639 0 4.318-2.263 4.318-4.318 0-4.107-4.703-5.51-7.341-3.455z" fill="url(#d)"/></g><path transform="matrix(1.1091 0 0 1.2072 -37.349 -111.34)" d="m117.3 604.27s-8.0676-94.95 22.857-122.86c34.761-31.369 140-11.429 140-11.429s-71.54 24.838-100 48.571c-27.21 22.692-62.857 85.714-62.857 85.714z" fill="url(#c)" filter="url(#g)"/><path transform="matrix(1.1091 0 0 1.2072 117.25 -332.27)" d="m117.3 604.27s-8.0676-94.95 22.857-122.86c34.761-31.369 140-11.429 140-11.429s-71.54 24.838-100 48.571c-27.21 22.692-62.857 85.714-62.857 85.714z" fill="url(#b)" filter="url(#f)"/><path transform="matrix(1.142 .70291 -.84188 1.3678 729.37 -305.07)" d="m117.3 604.27s-8.0676-94.95 22.857-122.86c34.761-31.369 140-11.429 140-11.429s-71.54 24.838-100 48.571c-27.21 22.692-62.857 85.714-62.857 85.714z" fill="url(#a)" filter="url(#e)"/><path d="m28.356 122.03v734.28h667.16v-734.28h-667.16zm334.28 97.625c91.69 0 131.37 74.172 131.37 118.84 0 76.307-68.812 131.34-68.812 131.34 76.423-59.533 212.66-18.886 212.66 100.09 0 59.533-48.642 125.09-125.09 125.09-91.69 0-131.34-100.09-131.34-100.09s-11.653 114.12 56.281 175.16h-150.12c67.934-61.069 56.312-175.16 56.312-175.16s-39.654 100.09-131.34 100.09c-76.423 0-125.09-65.532-125.09-125.09 0-118.98 136.23-159.63 212.66-100.09 0 0-68.812-55.037-68.812-131.34 0-44.643 39.654-118.84 131.34-118.84z" fill="#fffeff"/></g><g transform="matrix(1.4857 0 0 1.4857 -54.025 10.018)"><path d="m50.291 22.698s2.375-1.9 2.375-4.534c0-1.542-1.369-4.102-4.534-4.102s-4.534 2.561-4.534 4.102c0 2.634 2.375 4.534 2.375 4.534-2.638-2.055-7.341-0.652-7.341 3.455 0 2.056 1.68 4.318 4.318 4.318 3.165 0 4.534-3.455 4.534-3.455s0.402 3.938-1.943 6.046h5.182c-2.345-2.107-1.943-6.046-1.943-6.046s1.369 3.455 4.534 3.455c2.639 0 4.318-2.263 4.318-4.318 0-4.107-4.703-5.51-7.341-3.455z"/></g><text transform="scale(-1)" x="-160.46396" y="-214.4666" fill="#000000" font-family="Bitstream Vera Sans" font-size="32px" letter-spacing="0px" word-spacing="0px" style="line-height:125%" xml:space="preserve"><tspan x="-160.46396" y="-214.4666" font-family="Arial">A</tspan></text>
<g transform="matrix(-1.4857 0 0 -1.4857 221.2 232.46)"><path d="m50.291 22.698s2.375-1.9 2.375-4.534c0-1.542-1.369-4.102-4.534-4.102s-4.534 2.561-4.534 4.102c0 2.634 2.375 4.534 2.375 4.534-2.638-2.055-7.341-0.652-7.341 3.455 0 2.056 1.68 4.318 4.318 4.318 3.165 0 4.534-3.455 4.534-3.455s0.402 3.938-1.943 6.046h5.182c-2.345-2.107-1.943-6.046-1.943-6.046s1.369 3.455 4.534 3.455c2.639 0 4.318-2.263 4.318-4.318 0-4.107-4.703-5.51-7.341-3.455z"/></g></svg>
