<?xml version="1.0" encoding="UTF-8"?>
<!-- http://code.google.com/p/vector-playing-cards/ -->
<svg width="167.09pt" height="242.67pt" version="1.1" viewBox="0 0 167.09 242.67" xml:space="preserve" xmlns="http://www.w3.org/2000/svg" xmlns:cc="http://creativecommons.org/ns#" xmlns:dc="http://purl.org/dc/elements/1.1/" xmlns:rdf="http://www.w3.org/1999/02/22-rdf-syntax-ns#" xmlns:xlink="http://www.w3.org/1999/xlink"><metadata><rdf:RDF><cc:Work rdf:about=""><dc:format>image/svg+xml</dc:format><dc:type rdf:resource="http://purl.org/dc/dcmitype/StillImage"/><dc:title/></cc:Work></rdf:RDF></metadata><defs><filter id="c" x="-.13934" y="-.16242" width="1.2787" height="1.3248" color-interpolation-filters="sRGB"><feGaussianBlur stdDeviation="9.5105772"/></filter><radialGradient id="b" cx="171.49" cy="511.22" r="81.903" gradientTransform="matrix(1.153 -.67392 .39482 .67549 -233.63 270.4)" gradientUnits="userSpaceOnUse"><stop stop-color="#fff" stop-opacity=".43511" offset="0"/><stop stop-opacity="0" offset="1"/></radialGradient><radialGradient id="a" cx="1.6633e-13" cy="-3.2337" r="8" gradientTransform="matrix(-1.1224 .0055139 -.0090897 -1.8503 -.029394 -10.228)" gradientUnits="userSpaceOnUse"><stop stop-color="#df0000" offset="0"/><stop stop-color="#df0000" stop-opacity=".64122" offset="1"/></radialGradient></defs>
	<g stroke="#000">
		<path d="m166.84 235.55c0 3.7773-3.0869 6.8691-6.8711 6.8691h-152.85c-3.7749 0-6.8608-3.0918-6.8608-6.8691v-228.43c0-3.7773 3.0859-6.8701 6.8608-6.8701h152.85c3.7842 0 6.8711 3.0928 6.8711 6.8701v228.43z" fill="#fff" stroke-width=".5"/>
		<g stroke="none">
		</g>
		<g stroke="none">
		</g>
		<g stroke="none">
		</g>
	</g>
<text x="6.2456665" y="28.013288" fill="#df0000" font-family="Bitstream Vera Sans" font-size="32px" letter-spacing="0px" word-spacing="0px" style="line-height:125%" xml:space="preserve"><tspan x="6.2456665" y="28.013288" fill="#df0000" font-family="Arial">A</tspan></text>
<text transform="scale(-1)" x="-161.08786" y="-213.51517" fill="#df0000" font-family="Bitstream Vera Sans" font-size="32px" letter-spacing="0px" word-spacing="0px" style="line-height:125%" xml:space="preserve"><tspan x="-161.08786" y="-213.51517" fill="#df0000" font-family="Arial">A</tspan></text>
<g transform="matrix(.17001 0 0 .17001 19.517 29.794)"><g transform="matrix(35.005 0 0 35.005 369.18 512.27)"><path d="m3.2433-4.7253c-2.117-2.864-3.2433-5.7747-3.2433-5.7747s-1.1263 2.9107-3.2433 5.7747c-2.118 2.863-4.7567 4.7253-4.7567 4.7253s2.6387 1.8613 4.7567 4.7263c2.117 2.863 3.2433 5.7737 3.2433 5.7737s1.1263-2.9107 3.2433-5.7737c2.118-2.865 4.7567-4.7263 4.7567-4.7263s-2.6387-1.8623-4.7567-4.7253z" fill="url(#a)"/></g><path transform="matrix(-1.4652 .23694 -.24538 -1.5174 660.31 1148.7)" d="m117.3 604.27s-8.0676-94.95 22.857-122.86c34.761-31.369 140-11.429 140-11.429s-71.54 24.838-100 48.571c-27.21 22.692-62.857 85.714-62.857 85.714z" fill="url(#b)" filter="url(#c)"/></g><g transform="matrix(1.4769 0 0 1.4769 16.968 44.236)"><path d="m3.2433-4.7253c-2.117-2.864-3.2433-5.7747-3.2433-5.7747s-1.1263 2.9107-3.2433 5.7747c-2.118 2.863-4.7567 4.7253-4.7567 4.7253s2.6387 1.8613 4.7567 4.7263c2.117 2.863 3.2433 5.7737 3.2433 5.7737s1.1263-2.9107 3.2433-5.7737c2.118-2.865 4.7567-4.7263 4.7567-4.7263s-2.6387-1.8623-4.7567-4.7253z" fill="#df0000"/></g><g transform="matrix(1.4769 0 0 1.4769 150.62 198.5)"><path d="m3.2433-4.7253c-2.117-2.864-3.2433-5.7747-3.2433-5.7747s-1.1263 2.9107-3.2433 5.7747c-2.118 2.863-4.7567 4.7253-4.7567 4.7253s2.6387 1.8613 4.7567 4.7263c2.117 2.863 3.2433 5.7737 3.2433 5.7737s1.1263-2.9107 3.2433-5.7737c2.118-2.865 4.7567-4.7263 4.7567-4.7263s-2.6387-1.8623-4.7567-4.7253z" fill="#df0000"/></g></svg>
