<?xml version="1.0" encoding="UTF-8"?>
<!-- http://code.google.com/p/vector-playing-cards/ -->
<svg width="167.09pt" height="242.67pt" version="1.1" viewBox="0 0 167.09 242.67" xml:space="preserve" xmlns="http://www.w3.org/2000/svg" xmlns:cc="http://creativecommons.org/ns#" xmlns:dc="http://purl.org/dc/elements/1.1/" xmlns:rdf="http://www.w3.org/1999/02/22-rdf-syntax-ns#" xmlns:xlink="http://www.w3.org/1999/xlink"><metadata><rdf:RDF><cc:Work rdf:about=""><dc:format>image/svg+xml</dc:format><dc:type rdf:resource="http://purl.org/dc/dcmitype/StillImage"/><dc:title/></cc:Work></rdf:RDF></metadata><defs><radialGradient id="b" cx="-.20602" cy="-4.5787" r="8" gradientTransform="matrix(-1 0 0 -1.7202 -.41204 -13.027)" gradientUnits="userSpaceOnUse"><stop stop-color="#df0000" offset="0"/><stop stop-color="#df0000" stop-opacity=".67176" offset="1"/></radialGradient><radialGradient id="a" cx="171.49" cy="511.22" r="81.903" gradientTransform="matrix(1.153 -.67392 .39482 .67549 -233.63 270.4)" gradientUnits="userSpaceOnUse"><stop stop-color="#fff" stop-opacity=".31298" offset="0"/><stop stop-opacity="0" offset="1"/></radialGradient><filter id="e" x="-.13934" y="-.16242" width="1.2787" height="1.3248" color-interpolation-filters="sRGB"><feGaussianBlur stdDeviation="9.5105772"/></filter><filter id="d" x="-.13934" y="-.16242" width="1.2787" height="1.3248" color-interpolation-filters="sRGB"><feGaussianBlur stdDeviation="9.5105772"/></filter><radialGradient id="c" cx="159.35" cy="492.63" r="81.903" gradientTransform="matrix(1.0895 -.71514 .44645 .65627 -244.93 290.92)" gradientUnits="userSpaceOnUse"><stop stop-color="#fff" stop-opacity=".29008" offset="0"/><stop stop-opacity="0" offset="1"/></radialGradient></defs>
	<g stroke="#000">
		<path d="m166.84 235.55c0 3.7773-3.0869 6.8691-6.8711 6.8691h-152.85c-3.7749 0-6.8608-3.0918-6.8608-6.8691v-228.43c0-3.7773 3.0859-6.8701 6.8608-6.8701h152.85c3.7842 0 6.8711 3.0928 6.8711 6.8701v228.43z" fill="#fff" stroke-width=".5"/>
		<g stroke="none">
		</g>
		<g stroke="none">
		</g>
		<g stroke="none">
		</g>
	</g>
<text x="6.2456665" y="28.013288" fill="#df0000" font-family="Bitstream Vera Sans" font-size="32px" letter-spacing="0px" word-spacing="0px" style="line-height:125%" xml:space="preserve"><tspan x="6.2456665" y="28.013288" fill="#df0000" font-family="Arial">A</tspan></text>
<g transform="matrix(.19687 0 0 .19687 11.55 16.87)"><g transform="matrix(34.671 0 0 32.448 363.65 535.4)"><path d="m3.676-9c-3.243 0-3.676 3.477-3.676 3.477s-0.433-3.477-3.676-3.477c-2.27 0-4.324 1.559-4.324 4.5 0 3.886 6.5792 7.7938 8 13.5 1.352-5.7014 8-9.614 8-13.5 0-2.941-2.054-4.5-4.324-4.5z" fill="url(#b)"/></g><path transform="matrix(1.4842 0 0 1.5371 -80.689 -450.59)" d="m117.3 604.27s-8.0676-94.95 22.857-122.86c34.761-31.369 140-11.429 140-11.429s-71.54 24.838-100 48.571c-27.21 22.692-62.857 85.714-62.857 85.714z" fill="url(#a)" filter="url(#e)"/><path transform="matrix(1.1533 .33783 -.32928 1.4016 422.94 -451.9)" d="m117.3 604.27s-8.0676-94.95 22.857-122.86c34.761-31.369 140-11.429 140-11.429s-63.093 37.071-91.553 60.804c-27.21 22.692-71.305 73.481-71.305 73.481z" fill="url(#c)" filter="url(#d)"/></g><g transform="matrix(1.6743 0 0 1.567 17.178 46.385)" fill="#df0000"><path d="m3.676-9c-3.243 0-3.676 3.477-3.676 3.477s-0.433-3.477-3.676-3.477c-2.27 0-4.324 1.559-4.324 4.5 0 3.886 6.5792 7.7938 8 13.5 1.352-5.7014 8-9.614 8-13.5 0-2.941-2.054-4.5-4.324-4.5z" fill="#df0000"/></g><text transform="scale(-1)" x="-161.08786" y="-213.51517" fill="#df0000" font-family="Bitstream Vera Sans" font-size="32px" letter-spacing="0px" word-spacing="0px" style="line-height:125%" xml:space="preserve"><tspan x="-161.08786" y="-213.51517" fill="#df0000" font-family="Arial">A</tspan></text>
<g transform="matrix(-1.6743 0 0 -1.567 150.16 195.14)" fill="#df0000"><path d="m3.676-9c-3.243 0-3.676 3.477-3.676 3.477s-0.433-3.477-3.676-3.477c-2.27 0-4.324 1.559-4.324 4.5 0 3.886 6.5792 7.7938 8 13.5 1.352-5.7014 8-9.614 8-13.5 0-2.941-2.054-4.5-4.324-4.5z" fill="#df0000"/></g></svg>
