<?xml version="1.0" encoding="UTF-8"?>
<!-- http://code.google.com/p/vector-playing-cards/ -->
<svg width="167.09pt" height="242.67pt" version="1.1" viewBox="0 0 167.09 242.67" xml:space="preserve" xmlns="http://www.w3.org/2000/svg" xmlns:cc="http://creativecommons.org/ns#" xmlns:dc="http://purl.org/dc/elements/1.1/" xmlns:rdf="http://www.w3.org/1999/02/22-rdf-syntax-ns#"><metadata><rdf:RDF><cc:Work rdf:about=""><dc:format>image/svg+xml</dc:format><dc:type rdf:resource="http://purl.org/dc/dcmitype/StillImage"/></cc:Work></rdf:RDF></metadata>
	<g stroke="#000">
		<path d="m166.84 235.55c0 3.7773-3.0869 6.8691-6.8711 6.8691h-152.85c-3.7749 0-6.8608-3.0918-6.8608-6.8691v-228.43c0-3.7773 3.0859-6.8701 6.8608-6.8701h152.85c3.7842 0 6.8711 3.0928 6.8711 6.8701v228.43z" fill="#fff" stroke-width=".5"/>
		<g stroke="none">
		</g>
		<g stroke="none">
		</g>
		<g stroke="none">
		</g>
	</g>
<text x="6.2456665" y="28.013288" fill="#000000" font-family="Bitstream Vera Sans" font-size="32px" letter-spacing="0px" word-spacing="0px" style="line-height:125%" xml:space="preserve"><tspan x="6.2456665" y="28.013288" font-family="Arial">A</tspan></text>
<g transform="matrix(1.5086 0 0 1.3793 16.929 45.066)"><path d="m7.989 3.103c-0.242-4.057-7.747-11.693-7.989-13.603-0.242 1.909-7.747 9.545-7.989 13.603-0.169 2.868 1.695 4.057 3.39 4.057 1.8352-0.021581 3.3509-2.8007 3.873-3.341 0.242 0.716-1.603 6.682-2.179 6.682h5.811c-0.576 0-2.421-5.966-2.179-6.682 0.45715 0.4963 1.7971 3.2578 3.874 3.341 1.694-1e-3 3.557-1.189 3.388-4.057z"/></g><text transform="scale(-1)" x="-160.9081" y="-215.09668" fill="#000000" font-family="Bitstream Vera Sans" font-size="32px" letter-spacing="0px" word-spacing="0px" style="line-height:125%" xml:space="preserve"><tspan x="-160.9081" y="-215.09668" font-family="Arial">A</tspan></text>
<g transform="matrix(-1.5086 0 0 -1.3793 150.22 198.04)"><path d="m7.989 3.103c-0.242-4.057-7.747-11.693-7.989-13.603-0.242 1.909-7.747 9.545-7.989 13.603-0.169 2.868 1.695 4.057 3.39 4.057 1.8352-0.021581 3.3509-2.8007 3.873-3.341 0.242 0.716-1.603 6.682-2.179 6.682h5.811c-0.576 0-2.421-5.966-2.179-6.682 0.45715 0.4963 1.7971 3.2578 3.874 3.341 1.694-1e-3 3.557-1.189 3.388-4.057z"/></g><path d="m79.5 183.52c-7.8257-4e-3 -14.295-0.0721-14.375-0.15058-0.08083-0.0784 0.55643-0.6843 1.4161-1.3463 3.1298-2.4102 5.827-6.4267 8.9393-13.312 2.1389-4.7319 2.8271-6.6307 3.5376-9.761 1.137-5.0092 1.1001-8.4372-0.10633-9.8824l-0.57835-0.69283-2.33 2.4478c-2.5903 2.7213-5.9609 5.0385-9.7216 6.6833-4.1195 1.8017-6.785 2.3781-11.31 2.4456-3.5683 0.0533-4.3365-0.0397-6.8866-0.83361-6.4379-2.0041-11.655-6.5949-14.694-12.929-1.8306-3.8158-2.2984-5.9299-2.3868-10.787-0.07155-3.9294 0.01381-4.693 0.90732-8.1166 1.3954-5.3467 4.2541-11.962 7.1644-16.579 3.5373-5.6117 11.693-16.027 20.313-25.941 7.0923-8.1567 9.9499-11.791 14.898-18.945 5.2644-7.6118 7.3543-11.261 8.3513-14.582 0.39856-1.3277 0.79695-2.4143 0.88532-2.4145 0.08838-5.1e-5 0.60412 1.319 1.1461 2.9317 2.1556 6.4142 7.7334 15.195 15.82 24.905 1.4398 1.7288 5.6322 6.6526 9.3164 10.942 12.066 14.047 17.16 21.119 21.66 30.072 3.4846 6.9324 4.8592 12.276 4.6948 18.249-0.2101 7.6338-2.655 13.027-8.3217 18.356-2.3344 2.1953-5.9147 4.2741-8.7611 5.0869-0.88005 0.2513-3.262 0.57442-5.2933 0.71803-6.0822 0.43-10.616-0.76163-16.935-4.4506-2.9631-1.73-6.3122-4.5246-7.2378-6.0393-0.7479-1.224-1.3212-1.146-1.8827 0.25637-0.9442 2.3581-1.0954 4.4822-0.52072 7.315 1.7921 8.8339 7.5216 20.148 12.442 24.569l1.988 1.7862-3.9552 4e-3c-2.1753 3e-3 -10.358 5.4e-4 -18.184-4e-3zm12.99-4.6718c-1.542-1.2329-4.8829-5.9917-6.5376-9.3121-1.7207-3.453-2.2467-5.9889-1.7601-8.4857 0.19951-1.0238 0.43652-2.2395 0.52667-2.7014 0.10511-0.53869-0.12028-1.3791-0.6284-2.343l-0.7923-1.5031-0.8877 1.6906-0.88769 1.6906 0.58628 1.5571c0.86491 2.297 0.6579 5.6345-0.50535 8.1478-1.4701 3.1762-6.3963 10.49-7.6651 11.38-1.4856 1.0422-0.82552 1.0082 2.0052-0.10338 2.0397-0.801 2.691-0.8974 6.2919-0.93135 4.1372-0.039 7.9119 0.49761 9.5591 1.3589 1.5315 0.80083 1.9324 0.5443 0.69513-0.4449zm-5.9327-2.0662c-1.9112-0.41746-6.7286-0.2968-8.5134 0.21323-0.79131 0.22611-0.7894 0.21657 0.1752-0.87506 1.3273-1.502 2.1659-3.093 3.7377-7.0904 1.2086-3.0738 1.3643-3.319 1.6488-2.5956 0.17279 0.43933 0.85956 2.284 1.5262 4.0993 1.1671 3.1784 1.8934 4.5066 3.2986 6.0326 0.73689 0.80025 0.77934 0.79535-1.873 0.21603zm31.806-21.739c4.4765-1.7072 8.628-5.6982 10.81-10.392 1.3733-2.9541 1.8612-4.7366 2.277-8.3202 0.58299-5.0241-0.26513-9.5324-2.9966-15.929-3.6107-8.4554-8.6851-15.408-19.291-26.43-16.124-16.756-20.119-21.97-23.913-31.208-0.64937-1.5812-1.2882-3.4879-1.4196-4.2371-0.13141-0.74927-0.33459-1.357-0.45153-1.3504-0.11693 0.0068-0.58183 1.2231-1.0331 2.7036-2.7146 8.9056-8.8347 17.488-23.073 32.356-9.9244 10.364-11.469 12.202-15.537 18.497-5.3149 8.2231-7.7645 14.841-8.0391 21.719-0.43303 10.846 5.2504 20.117 13.9 22.675 5.2887 1.5641 12.55 0.29509 18.271-3.1931 4.5961-2.8024 6.9362-5.1146 8.7053-8.6017 0.56878-1.1211 1.0861-2.1015 1.1495-2.1788 0.06343-0.0773 0.63991 0.34802 1.281 0.94504 1.1226 1.0454 3.0894 4.3852 3.9044 6.6299l0.39214 1.0801 1.0549-2.5215c0.70054-1.6745 1.6318-3.1636 2.7723-4.433l1.7174-1.9114 1.1477 2.285c2.619 5.2146 9.9287 10.372 17.373 12.258 3.1824 0.80617 8.2576 0.60153 10.998-0.44343zm-8.5128-0.24843c-2.7095-0.32153-4.4112-0.84113-7.2385-2.2102-7.4336-3.5996-11.354-7.6009-12.114-12.366-0.13374-0.83762-0.39383-1.5207-0.57798-1.5179-1.0907 0.0162-4.5935 4.0724-5.8003 6.7167-0.2737 0.59973-0.62282 1.0923-0.77581 1.0946-0.15299 3e-3 -0.59842-0.60572-0.98984-1.3511-1.1333-2.1581-3.2456-4.9323-4.4123-5.795-1.1775-0.87063-1.1729-0.8732-1.7317 0.98561-0.59773 1.9883-1.8234 4.3864-3.0173 5.9034-1.2183 1.5481-6.3745 5.2224-9.0207 6.4283-5.9465 2.7098-12.95 2.7378-17.656 0.0707-4.0316-2.2846-7.0501-6.5175-8.552-11.993-2.1229-7.7391-0.9418-15.025 3.8493-23.745 4.4127-8.0315 7.1377-11.648 15.262-20.254 13.469-14.267 20.243-23.052 24.166-31.34 1.6299-3.4438 1.9918-3.2675 1.0702 0.52104-1.5746 6.4727-12.141 22.15-28.279 41.957-4.3493 5.3382-9.0349 13.187-10.472 17.54-1.9737 5.98-2.2591 10.796-0.93141 15.721 1.8875 7.0009 5.7879 11.042 11.495 11.909 8.2773 1.258 15.681-4.7391 20.583-16.672l1.1834-2.881 1.6231 2.4305c1.7608 2.6367 5.3394 6.3923 6.0806 6.3813 0.5689-8e-3 4.7567-4.5074 6.1354-6.5912 0.55801-0.84337 1.0939-1.5383 1.1909-1.5443 0.097-6e-3 0.37793 0.52841 0.62435 1.1876 0.24642 0.65918 1.0249 2.3295 1.7299 3.7118 4.9946 9.7929 11.616 14.596 19.275 13.98 3.4055-0.27357 5.8682-1.7222 8.2481-4.8518 2.5786-3.3909 3.7984-6.5624 4.2133-10.955 0.46079-4.8786-0.76952-10.259-3.7913-16.581-1.6936-3.5431-6.7047-10.765-10.683-15.396-7.7773-9.0532-20.649-27.077-24.186-33.866-0.91681-1.76-2.0995-5.6201-2.3888-7.7968-0.23384-1.7592 0.12428-1.4007 1.0664 1.0675 1.5354 4.0226 5.3274 10.038 9.525 15.109 2.6311 3.1786 5.5342 6.3811 12.821 14.143 4.6959 5.0021 7.6708 8.441 11.04 12.762 5.7618 7.3894 10.498 17.183 11.636 24.065 1.1117 6.7183-1.5732 15.125-6.2491 19.565-1.8242 1.7325-5.447 3.6156-8.1314 4.2266-2.2853 0.52014-3.0895 0.55162-5.8185 0.22779zm-2.841-3.6032c-2.7273-0.99214-5.0014-2.462-6.811-4.4022-3.2168-3.449-6.5645-9.253-8.0947-14.034-0.80095-2.5025-1.0821-2.8663-1.3996-1.8116-0.65305 2.1692-6.3498 10.413-7.2027 10.423-0.6049 8e-3 -3.2416-3.4098-5.7533-7.4555-1.3014-2.0962-2.408-3.852-2.4592-3.9016-0.05117-0.0497-0.38698 1.0776-0.74629 2.5049-1.6422 6.5237-6.544 14.355-10.819 17.286-6.0343 4.1363-14.975 2.3138-17.701-3.6084-0.72602-1.5773-1.3467-4.8876-0.91762-4.894 0.14714-3e-3 0.26973 0.14371 0.27243 0.32422 0.01065 0.71417 1.8416 2.9581 3.0889 3.7856 4.8939 3.2467 9.6138 2.718 15.057-1.6866 4.2547-3.4432 8.1951-11.212 6.6864-13.182-0.39073-0.51039-0.42498-0.43156-0.30084 0.6925 0.18444 1.67-0.54283 2.783-2.4859 3.8044-0.83976 0.4414-1.6659 1.0594-1.8357 1.3733-0.28347 0.52377-0.38599 0.49916-1.2453-0.29908-0.515-0.4784-1.2762-0.86475-1.6915-0.85856-0.7428 0.0111-0.74516 0.0219-0.14464 0.66598 0.72882 0.78158 0.85289 3.335 0.25286 5.2039-0.48336 1.5055-2.944 4.1584-4.6333 4.9953-2.8328 1.4034-7.3395 0.47125-9.6328-1.9923-3.2862-3.5301-1.9968-9.4556 2.5972-11.936 2.2057-1.1909 5.3376-0.74174 6.9958 1.0033 0.77709 0.8178 0.78283 0.85966 0.27098 1.9756-0.71587 1.5607-1.2215 1.6614-2.434 0.48453-0.95071-0.92277-1.1696-0.99137-2.6411-0.82778-2.7848 0.30957-4.5078 2.8471-3.7332 5.4979 0.44381 1.5187 2.7689 3.5981 4.3222 3.8656 4.0752 0.70177 7.8843-3.7966 6.8537-8.0938-0.32108-1.3388-0.26764-1.8002 0.46161-3.9855 1.5998-4.7939 0.70499-12.203-1.8461-15.287-0.50436-0.60959-0.51227-0.59996-0.19802 0.24119 0.34011 0.91041 0.17983 1.848-0.3172 1.8555-0.15781 3e-3 -0.2892-0.14738-0.29196-0.33274-0.0028-0.18536-0.60703-0.59584-1.3428-0.91216-1.6766-0.7208-2.9684-0.33993-3.6783 1.0844-0.46477 0.93262-0.45954 0.97039 0.10101 0.73065 1.3294-0.56856 1.7995-0.57708 3.006-0.0546 2.3394 1.0132 3.7493 3.8603 3.7911 7.6559 0.02536 2.2963-0.47655 4.9885-0.93122 4.9953-0.09341 2e-3 -0.71844-0.41882-1.389-0.93379-1.6154-1.2406-2.6328-1.5787-4.6357-1.5403-3.3433 0.0641-6.5959 2.5421-8.3683 6.3756-0.57372 1.2409-1.0421 2.6218-1.0408 3.0686 0.0022 0.77409-0.01605 0.78238-0.38689 0.17553-0.53735-0.87934-0.50126-5.8997 0.06239-8.6782 1.417-6.9851 6.9928-17.112 13.367-24.278l1.7155-1.9285 0.23155 3.0243c0.18154 2.371 0.41585 3.3714 1.0848 4.6313 1.0403 1.9594 3.3092 4.0515 4.953 4.5669 1.7963 0.56325 4.6403 0.22523 5.8468-0.69487 1.2564-0.95817 2.147-2.9353 1.8401-4.085-0.1611-0.60359-0.11138-0.81471 0.17083-0.72529 0.68136 0.21589 1.6158 1.6678 1.9392 3.0133 0.32976 1.3717 0.02309 4.4208-0.55783 5.5463-0.58064 1.125-2.4516 2.3499-4.376 2.865-2.9345 0.78545-3.5345 1.1244-4.0707 2.2992-0.62663 1.373-0.32291 3.2195 0.60865 3.7003 0.62722 0.32374 0.63172 0.30829 0.11728-0.40334-0.68318-0.94506-0.67564-1.1023 0.09064-1.8918 0.54532-0.56183 1.0671-0.65965 3.7657-0.70598 3.9594-0.068 5.4317-0.67582 6.5711-2.7128 1.247-2.2295 1.5304-3.8409 1.0788-6.1355-0.71241-3.6203-2.6216-6.6123-4.9422-7.745-1.9329-0.94352-3.4856-0.96373-4.6001-0.0598-1.0096 0.8188-1.113 1.4555-0.14964 0.92129 0.97899-0.54288 2.1391 0.0631 2.7334 1.4279 0.41879 0.96172 0.42642 1.2665 0.055 2.1942-1.2288 3.0688-4.8249 3.36-8.0003 0.64796-2.029-1.733-2.9287-3.621-2.9522-6.195-0.03278-3.5862 1.7685-6.553 4.9228-8.1078 1.2556-0.61894 4.0429-0.69354 5.6351-0.15076 4.4428 1.5145 8.5147 7.1518 10.008 13.855 0.55303 2.483 1.951 13.204 1.9787 15.174 0.01133 0.80133-0.2404 1.8101-0.6065 2.4312-0.79469 1.3482-0.78129 2.2205 0.04138 2.7176 0.35673 0.21546 0.65347 0.71843 0.65943 1.1177 0.0064 0.43111 0.20659 0.72306 0.4928 0.71879 0.28621-4e-3 0.47756-0.30206 0.47113-0.73317-0.0059-0.39929 0.27566-0.91089 0.6258-1.1369 0.77266-0.4987 0.7974-1.3863 0.07614-2.7315-0.44114-0.82276-0.51135-1.5747-0.38062-4.076 0.20928-4.004 1.1386-10.505 1.9273-13.483 1.6692-6.3018 5.2306-11.649 8.9184-13.39 3.004-1.4185 7.0202-0.4731 9.3868 2.2097 1.5053 1.7064 1.9141 3.0146 1.8148 5.8074-0.0698 1.9644-0.25098 2.6117-1.1762 4.2031-1.4763 2.5392-3.5798 3.8687-5.8672 3.7082-1.3274-0.0931-1.7664-0.29973-2.6701-1.2568-0.85303-0.9033-1.0857-1.421-1.101-2.4499-0.0257-1.7198 1.1487-3.0332 2.5476-2.8492 1.161 0.15274 1.2112-0.21946 0.12282-0.90962-1.2967-0.82224-3.629-0.41226-5.4967 0.96622-1.6599 1.2251-3.3806 3.8394-3.9202 5.9562-0.47565 1.8657-0.09853 5.2853 0.77441 7.0221 1.2011 2.3896 2.1989 2.8687 6.2412 2.9968 3.0327 0.0961 3.5374 0.19557 4.185 0.82499 0.64346 0.62541 0.68455 0.80162 0.32558 1.396-0.33994 0.56282-0.33765 0.65471 0.0139 0.53232 0.61665-0.21504 1.0112-1.6419 0.73761-2.6672-0.40829-1.5297-1.7909-2.5548-3.9803-2.951-1.091-0.19741-2.3672-0.65152-2.8361-1.0092-2.514-1.9175-3.1993-7.1667-1.2665-9.7007 0.8811-1.1552 1.24-1.082 1.0494 0.21401-0.20299 1.3808 0.54375 2.7909 2.0793 3.9263 0.92102 0.681 1.6051 0.88943 3.1481 0.95912 2.4841 0.11222 3.9336-0.49871 5.8376-2.4604 2.0508-2.1129 2.7354-3.9179 2.7151-7.1584-9e-3 -1.457 0.0873-2.6515 0.21423-2.6546 0.39711-9e-3 4.8197 5.6915 7.6386 9.8468 5.9773 8.8108 8.5282 15.86 8.0786 22.325-0.20231 2.9099-0.65021 3.6308-0.98754 1.5895-0.44215-2.6757-3.3104-6.5753-5.9253-8.0557-1.1343-0.6422-1.8783-0.80849-3.6006-0.8047-2.338 5e-3 -3.7204 0.53273-5.2458 2.002l-0.84294 0.81193-0.44164-0.7491c-0.28206-0.4784-0.45292-1.7942-0.47281-3.6411-0.0363-3.3696 0.64509-5.3553 2.5168-7.3347 1.4842-1.5696 2.7235-1.8757 3.9719-0.98124l0.93776 0.67193-0.0138-0.92375c-0.0308-2.0626-2.8725-2.8244-4.8656-1.3044l-1.0122 0.77195 0.12811-0.97378c0.16615-1.2629-0.38769-1.0598-1.4556 0.53376-1.2417 1.8528-1.7685 3.8333-1.9035 7.1551-0.10265 2.5268 3e-3 3.4698 0.60809 5.4544 0.40273 1.3197 0.73345 2.7971 0.73492 3.2832 2e-3 0.48606-0.0138 1.7156-0.0339 2.7322-0.0608 3.0649 1.2946 5.3657 3.8211 6.4863 3.7181 1.6492 7.5423-0.68101 7.4844-4.5606-0.0271-1.8199-0.75455-2.9743-2.3868-3.7878-1.208-0.602-3.2317-0.37706-4.1282 0.45883-0.60079 0.56023-0.65659 0.54636-1.6397-0.40789-1.0028-0.97334-1.0098-1.0005-0.47182-1.8489 1.1339-1.7882 5.1447-2.7595 7.1674-1.7359 0.48095 0.24339 1.417 0.9887 2.0801 1.6562 3.2089 3.2301 3.4565 7.6062 0.61856 10.929-2.285 2.6753-4.6531 3.2822-8.2768 2.1214-2.6127-0.83698-4.2351-2.1238-5.2541-4.1675-1.4365-2.881-1.4433-3.9142-0.0442-6.7348 0.34303-0.69156-1.4011-0.0848-2.2396 0.77917-0.74252 0.76502-1.0368 0.90212-1.2472 0.58102-0.15145-0.23115-0.2791-0.523-0.28368-0.64854-4e-3 -0.12556-0.72271-0.68088-1.5958-1.234-2.2333-1.4149-3.1492-3.435-2.3434-5.1686 0.31739-0.68286 0.31188-0.68542-0.16182-0.0757-1.0784 1.3879-0.67881 3.6466 1.3038 7.3705 3.3921 6.3712 8.6785 10.271 14.246 10.51 2.2548 0.0968 2.7113 0.0134 4.2768-0.78172 1.8012-0.91479 3.5882-2.7533 4.6173-4.7502l0.58412-1.1336 0.0278 1.1244c0.0599 2.4176-2.5976 6.8384-5.1133 8.5062-1.4704 0.97479-1.8315 1.0671-4.6662 1.1931-2.591 0.11516-3.385 0.0228-5.067-0.58906zm3.4079-8.5204c-0.92034-0.16507-2.3576-1.5686-2.9244-2.856-0.45011-1.0222-0.66472-3.6159-0.29965-3.6214 0.69434-0.0104 2.061 1.2133 2.5995 2.3275 0.56408 1.1672 0.76419 1.3182 1.7275 1.3038 1.3105-0.0195 1.9889-0.84033 1.412-1.7083-0.20357-0.30629-0.67635-0.54084-1.0506-0.52121-0.75139 0.0394-0.89968-0.47544-0.31148-1.0814 0.40779-0.42014 1.7967-0.53837 2.6497-0.22555 0.70532 0.25866 1.4872 1.7828 1.5044 2.9324 0.0165 1.107-0.94016 2.4683-2.2151 3.1519-0.89072 0.47759-1.6717 0.5529-3.0919 0.2982zm-58.103-0.88147c-1.5063-1.3494-1.8241-2.856-0.91808-4.3532 0.72264-1.1941 1.9417-1.6473 3.085-1.1468 0.95882 0.41971 1.0933 1.3335 0.16258 1.1049-0.4609-0.11321-0.73756 0.0757-1.0049 0.68652-0.3106 0.70957-0.27529 0.94315 0.22344 1.478 0.32579 0.34938 0.92092 0.63034 1.3225 0.62434 0.82256-0.0123 2.0415-1.4088 2.0278-2.3233-0.0049-0.32961 0.19024-0.60226 0.43368-0.60589 0.24344-3e-3 0.61938-0.22617 0.83543-0.49453 0.65334-0.81156 0.95573-0.56396 0.97607 0.79921 0.04372 2.931-1.5484 4.8625-4.2242 5.1246-1.6116 0.15789-1.8146 0.0957-2.9194-0.89395zm30.625-23.633c-0.01712-0.75097-0.24379-1.7238-0.50293-2.1618-0.66222-1.1193-0.61733-1.6441 0.24362-2.8483l0.75249-1.0524 0.7492 1.1727c0.67449 1.0558 0.70848 1.2731 0.34079 2.1789-0.22462 0.55338-0.46265 1.6939-0.52895 2.5345-0.15983 2.0262-1.0079 2.1681-1.0542 0.17642zm-1.6877-7.927c-0.69449-3.2716-2.7965-6.8596-5.6472-9.6394-3.0092-2.9344-5.4719-4.2075-7.4638-3.8584-1.0619 0.18609-1.2534 0.13302-1.251-0.34652 0.0046-0.8927 0.72223-2.0071 1.7376-2.6984 1.8419-1.254 3.2016-0.7615 6.1385 2.2234 4.2871 4.3571 7.364 10.301 7.4243 14.343 0.03293 2.2078-0.46749 2.1953-0.93847-0.0233zm3.1941 0.19143c-0.05053-3.8974 2.6688-9.7342 6.4665-13.882 3.7432-4.0885 6.2597-4.7291 8.3676-2.13 0.37605 0.46367 0.68836 1.1539 0.69403 1.5339 9e-3 0.62817-0.1574 0.69236-1.8374 0.70718-2.5811 0.0228-4.511 1.0845-7.4416 4.0942-2.8313 2.9077-4.778 6.3111-5.3289 9.3162-0.20568 1.122-0.49202 2.0418-0.63632 2.0439-0.1443 3e-3 -0.27212-0.75521-0.28406-1.683zm-1.3661-5.1673c-0.04199-2.8145-0.65415-6.043-2.6499-13.975-1.9251-7.6516-1.6722-11.795 1.0309-16.891 0.60005-1.1313 1.2571-2.6842 1.4601-3.4508l0.36907-1.3939 0.41566 1.2793c0.22861 0.70363 0.94547 2.3741 1.593 3.7122 2.522 5.2114 2.861 8.7957 1.3934 14.732-1.2802 5.1783-2.3219 10.367-2.8158 14.025-0.4732 3.5051-0.76283 4.2189-0.79648 1.963zm-3.7878-6.2997c-0.49863-0.72958-1.755-2.3378-2.7921-3.5739-2.3058-2.7484-3.2539-4.5142-3.5288-6.5726-0.36522-2.7339 0.7871-4.4439 2.7278-4.0479 1.8747 0.38254 2.7526 2.6873 3.6851 9.6741 0.38404 2.8776 0.78605 5.3694 0.89335 5.5374 0.10731 0.16796 0.1335 0.30632 0.05818 0.30744-0.07531 1e-3 -0.54489-0.59488-1.0435-1.3245zm7.3915 0.42633c0.06832-0.53129 0.26359-2.4143 0.43386-4.1844 0.54924-5.7095 1.5849-8.8594 3.3362-10.146 1.1736-0.86233 1.697-0.86853 2.4785-0.02936 0.48381 0.51952 0.6265 1.1428 0.64157 2.8025 0.0246 2.7131-0.44407 3.7104-3.5481 7.55-1.3473 1.6665-2.6783 3.4673-2.9579 4.0018l-0.50832 0.97172zm-14.894-7.6816c-0.91836-0.57678-1.5434-0.58422-2.9139-0.03473-0.48662 0.1951-0.46852 0.05907 0.13903-1.0452 0.38415-0.69823 1.1854-1.8432 1.7805-2.5444l1.082-1.2749 0.02177 1.459c0.01197 0.80247 0.24114 2.0524 0.50925 2.7777 0.26811 0.72526 0.45759 1.3085 0.42106 1.2962-0.03657-0.01239-0.50439-0.29757-1.0397-0.63375zm22.477-0.8179c0.1234-0.69209 0.30537-1.9727 0.40438-2.8457l0.18002-1.5874 0.85321 1.2506c0.46926 0.68781 1.103 1.7169 1.4082 2.2868l0.55502 1.0362-1.0613 0.01583c-0.58374 0.0087-1.3994 0.26023-1.8126 0.55894l-0.75127 0.54309zm-17.259-7.9179c-0.42239-0.34134-1.0411-0.61654-1.375-0.61156-0.33386 5e-3 -0.60794-0.05298-0.60907-0.12888-0.0036-0.24552 2.4944-4.029 2.7811-4.2122 0.15453-0.09872 0.18372 0.38402 0.06577 1.0881-0.11658 0.69607-0.131 1.994-0.03204 2.8842 0.09897 0.89025 0.12533 1.6146 0.05859 1.6098-0.06678-0.0049-0.46695-0.28816-0.88933-0.6295zm11.924-2.122c0.0073-1.3979 0.04399-2.5428 0.08161-2.5442 0.12892-0.0053 2.7197 3.7791 2.7227 3.9765 2e-3 0.1085-0.14779 0.10718-0.332-0.0026-0.18422-0.11009-0.81883 0.09515-1.4102 0.45609l-1.0753 0.65627z"/></svg>
