<?xml version="1.0" encoding="UTF-8"?>
<!-- http://code.google.com/p/vector-playing-cards/ -->
<svg width="167.09pt" height="242.67pt" version="1.1" viewBox="0 0 167.09 242.67" xml:space="preserve" xmlns="http://www.w3.org/2000/svg" xmlns:cc="http://creativecommons.org/ns#" xmlns:dc="http://purl.org/dc/elements/1.1/" xmlns:rdf="http://www.w3.org/1999/02/22-rdf-syntax-ns#"><metadata><rdf:RDF><cc:Work rdf:about=""><dc:format>image/svg+xml</dc:format><dc:type rdf:resource="http://purl.org/dc/dcmitype/StillImage"/><dc:title/></cc:Work></rdf:RDF></metadata>
	<g stroke="#000">
		<path d="m166.84 235.55c0 3.7773-3.0869 6.8691-6.8711 6.8691h-152.85c-3.7749 0-6.8608-3.0918-6.8608-6.8691v-228.43c0-3.7773 3.0859-6.8701 6.8608-6.8701h152.85c3.7842 0 6.8711 3.0928 6.8711 6.8701v228.43z" fill="#fff" stroke-width=".5"/>
		<g stroke="none">
		</g>
		<g stroke="none">
		</g>
		<g stroke="none">
		</g>
	</g>
<text x="3.9446316" y="27.355848" fill="#df0000" font-family="Bitstream Vera Sans" font-size="32px" letter-spacing="0px" word-spacing="0px" style="line-height:125%" xml:space="preserve"><tspan x="3.9446316" y="27.355848" fill="#df0000" font-family="LMMathSymbols9" font-style="italic" font-weight="bold">J</tspan></text>
<g transform="matrix(2.2712 2.2712 -2.0766 2.0766 117.07 94.437)"><path d="m7.989 3.103c-0.242-4.057-7.747-11.693-7.989-13.603-0.242 1.909-7.747 9.545-7.989 13.603-0.169 2.868 1.695 4.057 3.39 4.057 1.8352-0.021581 3.3509-2.8007 3.873-3.341 0.242 0.716-1.603 6.682-2.179 6.682h5.811c-0.576 0-2.421-5.966-2.179-6.682 0.45715 0.4963 1.7971 3.2578 3.874 3.341 1.694-1e-3 3.557-1.189 3.388-4.057z"/></g>
<text x="4.2733507" y="49.051323" fill="#df0000" font-family="Bitstream Vera Sans" font-size="32px" letter-spacing="0px" word-spacing="0px" style="line-height:125%" xml:space="preserve"><tspan x="4.2733507" y="49.051323" fill="#df0000" font-family="URW Chancery L" font-size="38.4px" font-style="italic" font-weight="bold">o</tspan></text>
<text x="2.6297548" y="76.992462" fill="#df0000" font-family="Bitstream Vera Sans" font-size="32px" letter-spacing="0px" word-spacing="0px" style="line-height:125%" xml:space="preserve"><tspan x="2.6297548" y="76.992462" fill="#df0000" font-family="URW Chancery L" font-size="38.4px" font-style="italic" font-weight="bold">k</tspan></text>
<text x="2.6297553" y="99.345383" fill="#df0000" font-family="Bitstream Vera Sans" font-size="32px" letter-spacing="0px" word-spacing="0px" style="line-height:125%" xml:space="preserve"><tspan x="2.6297553" y="99.345383" fill="#df0000" font-family="URW Chancery L" font-size="38.4px" font-style="italic" font-weight="bold">e</tspan></text>
<text x="2.3010359" y="120.3834" fill="#df0000" font-family="Bitstream Vera Sans" font-size="32px" letter-spacing="0px" word-spacing="0px" style="line-height:125%" xml:space="preserve"><tspan x="2.3010359" y="120.3834" fill="#df0000" font-family="URW Chancery L" font-size="38.4px" font-style="italic" font-weight="bold">r</tspan></text>
<g transform="matrix(2.3744 -2.3744 2.2222 2.2222 59.384 95.635)"><path d="m3.676-9c-3.243 0-3.676 3.477-3.676 3.477s-0.433-3.477-3.676-3.477c-2.27 0-4.324 1.559-4.324 4.5 0 3.886 6.5792 7.7938 8 13.5 1.352-5.7014 8-9.614 8-13.5 0-2.941-2.054-4.5-4.324-4.5z" fill="#df0000"/></g><g transform="matrix(-2.1458 -2.1458 2.1458 -2.1458 110.2 305.78)"><path d="m50.291 22.698s2.375-1.9 2.375-4.534c0-1.542-1.369-4.102-4.534-4.102s-4.534 2.561-4.534 4.102c0 2.634 2.375 4.534 2.375 4.534-2.638-2.055-7.341-0.652-7.341 3.455 0 2.056 1.68 4.318 4.318 4.318 3.165 0 4.534-3.455 4.534-3.455s0.402 3.938-1.943 6.046h5.182c-2.345-2.107-1.943-6.046-1.943-6.046s1.369 3.455 4.534 3.455c2.639 0 4.318-2.263 4.318-4.318 0-4.107-4.703-5.51-7.341-3.455z"/></g><g transform="matrix(2.235 -2.235 2.235 2.235 117.79 156.17)"><path d="m3.2433-4.7253c-2.117-2.864-3.2433-5.7747-3.2433-5.7747s-1.1263 2.9107-3.2433 5.7747c-2.118 2.863-4.7567 4.7253-4.7567 4.7253s2.6387 1.8613 4.7567 4.7263c2.117 2.863 3.2433 5.7737 3.2433 5.7737s1.1263-2.9107 3.2433-5.7737c2.118-2.865 4.7567-4.7263 4.7567-4.7263s-2.6387-1.8623-4.7567-4.7253z" fill="#df0000"/></g>
<text transform="scale(-1)" x="-163.71599" y="-215.00195" fill="#df0000" font-family="Bitstream Vera Sans" font-size="32px" letter-spacing="0px" word-spacing="0px" style="line-height:125%" xml:space="preserve"><tspan x="-163.71599" y="-215.00195" fill="#df0000" font-family="LMMathSymbols9" font-style="italic" font-weight="bold">J</tspan></text>
<text transform="scale(-1)" x="-163.38727" y="-193.30647" fill="#df0000" font-family="Bitstream Vera Sans" font-size="32px" letter-spacing="0px" word-spacing="0px" style="line-height:125%" xml:space="preserve"><tspan x="-163.38727" y="-193.30647" fill="#df0000" font-family="URW Chancery L" font-size="38.4px" font-style="italic" font-weight="bold">o</tspan></text>
<text transform="scale(-1)" x="-165.03085" y="-165.36533" fill="#df0000" font-family="Bitstream Vera Sans" font-size="32px" letter-spacing="0px" word-spacing="0px" style="line-height:125%" xml:space="preserve"><tspan x="-165.03085" y="-165.36533" fill="#df0000" font-family="URW Chancery L" font-size="38.4px" font-style="italic" font-weight="bold">k</tspan></text>
<text transform="scale(-1)" x="-165.03085" y="-143.01241" fill="#df0000" font-family="Bitstream Vera Sans" font-size="32px" letter-spacing="0px" word-spacing="0px" style="line-height:125%" xml:space="preserve"><tspan x="-165.03085" y="-143.01241" fill="#df0000" font-family="URW Chancery L" font-size="38.4px" font-style="italic" font-weight="bold">e</tspan></text>
<text transform="scale(-1)" x="-165.35957" y="-121.97439" fill="#df0000" font-family="Bitstream Vera Sans" font-size="32px" letter-spacing="0px" word-spacing="0px" style="line-height:125%" xml:space="preserve"><tspan x="-165.35957" y="-121.97439" fill="#df0000" font-family="URW Chancery L" font-size="38.4px" font-style="italic" font-weight="bold">r</tspan></text>
</svg>
